<mxfile host="www.draw.io" modified="2019-11-25T20:54:12.068Z" agent="Mozilla/5.0 (X11; Ubuntu; Linux x86_64; rv:70.0) Gecko/20100101 Firefox/70.0" etag="SgLdDFJoLS3yZCG_u6pS" version="12.3.0" type="github" pages="2">
  <diagram id="PyS5Cjhh7RcTRXVBEofM" name="Page-1">
    <mxGraphModel dx="3603" dy="1511" grid="1" gridSize="10" guides="1" tooltips="1" connect="1" arrows="1" fold="1" page="1" pageScale="1" pageWidth="850" pageHeight="1100" math="0" shadow="0">
      <root>
        <mxCell id="0"/>
        <mxCell id="1" parent="0"/>
        <mxCell id="xx-sKV9BRUst1PvkpYuI-1" value="&lt;div style=&quot;font-size: 18px;&quot;&gt;&amp;nbsp;Class: MLModel&lt;br style=&quot;font-size: 18px;&quot;&gt;&lt;/div&gt;" style="rounded=0;whiteSpace=wrap;html=1;fillColor=#f5f5f5;strokeColor=#666666;fontColor=#333333;verticalAlign=top;fontSize=18;fontStyle=1" parent="1" vertex="1">
          <mxGeometry x="-40" y="213" width="1110" height="997" as="geometry"/>
        </mxCell>
        <mxCell id="xx-sKV9BRUst1PvkpYuI-13" style="edgeStyle=orthogonalEdgeStyle;rounded=0;orthogonalLoop=1;jettySize=auto;html=1;exitX=1;exitY=0.5;exitDx=0;exitDy=0;entryX=0;entryY=0.25;entryDx=0;entryDy=0;fontSize=13;" parent="1" source="xx-sKV9BRUst1PvkpYuI-4" target="xx-sKV9BRUst1PvkpYuI-8" edge="1">
          <mxGeometry relative="1" as="geometry">
            <Array as="points">
              <mxPoint x="380" y="320"/>
              <mxPoint x="380" y="405"/>
            </Array>
          </mxGeometry>
        </mxCell>
        <mxCell id="OFoXHy1mLqJZ7pKssnAS-2" style="edgeStyle=orthogonalEdgeStyle;rounded=0;orthogonalLoop=1;jettySize=auto;html=1;exitX=0.5;exitY=1;exitDx=0;exitDy=0;entryX=0.5;entryY=0;entryDx=0;entryDy=0;" parent="1" source="xx-sKV9BRUst1PvkpYuI-4" target="OFoXHy1mLqJZ7pKssnAS-1" edge="1">
          <mxGeometry relative="1" as="geometry"/>
        </mxCell>
        <mxCell id="xx-sKV9BRUst1PvkpYuI-4" value="Algorithm" style="rounded=0;whiteSpace=wrap;html=1;fontSize=18;" parent="1" vertex="1">
          <mxGeometry x="95" y="305" width="270" height="30" as="geometry"/>
        </mxCell>
        <mxCell id="xx-sKV9BRUst1PvkpYuI-10" style="edgeStyle=orthogonalEdgeStyle;rounded=0;orthogonalLoop=1;jettySize=auto;html=1;exitX=0.25;exitY=1;exitDx=0;exitDy=0;entryX=0.75;entryY=0;entryDx=0;entryDy=0;fontSize=18;" parent="1" source="xx-sKV9BRUst1PvkpYuI-6" target="xx-sKV9BRUst1PvkpYuI-8" edge="1">
          <mxGeometry relative="1" as="geometry">
            <Array as="points">
              <mxPoint x="812" y="335"/>
            </Array>
          </mxGeometry>
        </mxCell>
        <mxCell id="xx-sKV9BRUst1PvkpYuI-6" value="Data Set" style="rounded=0;whiteSpace=wrap;html=1;fontSize=18;" parent="1" vertex="1">
          <mxGeometry x="750" y="305" width="270" height="30" as="geometry"/>
        </mxCell>
        <mxCell id="xx-sKV9BRUst1PvkpYuI-9" style="edgeStyle=orthogonalEdgeStyle;rounded=0;orthogonalLoop=1;jettySize=auto;html=1;exitX=0.75;exitY=1;exitDx=0;exitDy=0;entryX=0.25;entryY=0;entryDx=0;entryDy=0;fontSize=18;" parent="1" source="xx-sKV9BRUst1PvkpYuI-7" target="xx-sKV9BRUst1PvkpYuI-8" edge="1">
          <mxGeometry relative="1" as="geometry"/>
        </mxCell>
        <mxCell id="xx-sKV9BRUst1PvkpYuI-7" value="Featurization Method" style="rounded=0;whiteSpace=wrap;html=1;fontSize=18;dashed=1;" parent="1" vertex="1">
          <mxGeometry x="425" y="305" width="270" height="30" as="geometry"/>
        </mxCell>
        <mxCell id="xx-sKV9BRUst1PvkpYuI-12" style="edgeStyle=orthogonalEdgeStyle;rounded=0;orthogonalLoop=1;jettySize=auto;html=1;exitX=0.5;exitY=1;exitDx=0;exitDy=0;entryX=0.5;entryY=0;entryDx=0;entryDy=0;fontSize=13;" parent="1" source="xx-sKV9BRUst1PvkpYuI-8" target="xx-sKV9BRUst1PvkpYuI-11" edge="1">
          <mxGeometry relative="1" as="geometry"/>
        </mxCell>
        <mxCell id="xx-sKV9BRUst1PvkpYuI-8" value="&lt;font style=&quot;font-size: 14px;&quot;&gt;features.featurization&lt;/font&gt;" style="shape=process;whiteSpace=wrap;html=1;backgroundOutline=1;fontSize=14;fillColor=#dae8fc;strokeColor=#6c8ebf;size=0.07456140350877173;" parent="1" vertex="1">
          <mxGeometry x="670" y="390" width="190" height="60" as="geometry"/>
        </mxCell>
        <mxCell id="NHo2hMX4Ly52mJW6jiy2-11" style="edgeStyle=orthogonalEdgeStyle;rounded=0;orthogonalLoop=1;jettySize=auto;html=1;exitX=1;exitY=0.5;exitDx=0;exitDy=0;entryX=0;entryY=0.5;entryDx=0;entryDy=0;labelBackgroundColor=none;fontSize=14;" parent="1" source="xx-sKV9BRUst1PvkpYuI-11" target="NHo2hMX4Ly52mJW6jiy2-10" edge="1">
          <mxGeometry relative="1" as="geometry"/>
        </mxCell>
        <mxCell id="xx-sKV9BRUst1PvkpYuI-11" value="&lt;div&gt;Featurized &lt;br&gt;&lt;/div&gt;&lt;div&gt;DF&lt;/div&gt;" style="shape=parallelogram;html=1;strokeWidth=1;perimeter=parallelogramPerimeter;rounded=1;arcSize=0;size=0.17333333333333334;fontSize=13;whiteSpace=wrap;fillColor=#d5e8d4;strokeColor=#82B366;" parent="1" vertex="1">
          <mxGeometry x="695" y="490" width="100" height="60" as="geometry"/>
        </mxCell>
        <mxCell id="xx-sKV9BRUst1PvkpYuI-14" value="Optional/Has Default" style="rounded=0;whiteSpace=wrap;html=1;dashed=1;fontSize=13;" parent="1" vertex="1">
          <mxGeometry x="1120" y="337.5" width="120" height="60" as="geometry"/>
        </mxCell>
        <mxCell id="xx-sKV9BRUst1PvkpYuI-15" value="Required" style="rounded=0;whiteSpace=wrap;html=1;fontSize=13;" parent="1" vertex="1">
          <mxGeometry x="1120" y="242.5" width="120" height="60" as="geometry"/>
        </mxCell>
        <mxCell id="179U-aXH73Nz-XjWr356-1" value="Fucntion" style="shape=process;whiteSpace=wrap;html=1;backgroundOutline=1;strokeColor=#6c8ebf;strokeWidth=1;fontSize=13;fillColor=#dae8fc;" parent="1" vertex="1">
          <mxGeometry x="1120" y="432.5" width="120" height="60" as="geometry"/>
        </mxCell>
        <mxCell id="NHo2hMX4Ly52mJW6jiy2-22" style="edgeStyle=orthogonalEdgeStyle;rounded=0;orthogonalLoop=1;jettySize=auto;html=1;exitX=0.5;exitY=1;exitDx=0;exitDy=0;entryX=1;entryY=0.5;entryDx=0;entryDy=0;labelBackgroundColor=none;fontSize=14;" parent="1" source="179U-aXH73Nz-XjWr356-2" target="NHo2hMX4Ly52mJW6jiy2-19" edge="1">
          <mxGeometry relative="1" as="geometry"/>
        </mxCell>
        <mxCell id="179U-aXH73Nz-XjWr356-2" value="&lt;div&gt;train, test&lt;/div&gt;&lt;div&gt;data&lt;br&gt;&lt;/div&gt;" style="shape=parallelogram;perimeter=parallelogramPerimeter;whiteSpace=wrap;html=1;dashed=0;strokeColor=#82b366;strokeWidth=1;fontSize=13;fillColor=#d5e8d4;" parent="1" vertex="1">
          <mxGeometry x="885" y="580" width="115" height="60" as="geometry"/>
        </mxCell>
        <mxCell id="NHo2hMX4Ly52mJW6jiy2-25" style="edgeStyle=orthogonalEdgeStyle;rounded=0;orthogonalLoop=1;jettySize=auto;html=1;exitX=0.5;exitY=1;exitDx=0;exitDy=0;entryX=0.5;entryY=0;entryDx=0;entryDy=0;labelBackgroundColor=none;fontSize=13;" parent="1" source="179U-aXH73Nz-XjWr356-3" target="179U-aXH73Nz-XjWr356-6" edge="1">
          <mxGeometry relative="1" as="geometry"/>
        </mxCell>
        <mxCell id="179U-aXH73Nz-XjWr356-3" value="grid.make_grid" style="shape=process;whiteSpace=wrap;html=1;backgroundOutline=1;strokeColor=#6c8ebf;strokeWidth=1;fontSize=14;fillColor=#dae8fc;" parent="1" vertex="1">
          <mxGeometry x="-20" y="581" width="140" height="68" as="geometry"/>
        </mxCell>
        <mxCell id="NHo2hMX4Ly52mJW6jiy2-9" style="edgeStyle=orthogonalEdgeStyle;rounded=0;orthogonalLoop=1;jettySize=auto;html=1;exitX=1;exitY=0.5;exitDx=0;exitDy=0;entryX=0;entryY=0.5;entryDx=0;entryDy=0;labelBackgroundColor=none;fontSize=14;" parent="1" source="179U-aXH73Nz-XjWr356-6" target="NHo2hMX4Ly52mJW6jiy2-7" edge="1">
          <mxGeometry relative="1" as="geometry"/>
        </mxCell>
        <mxCell id="179U-aXH73Nz-XjWr356-6" value="&lt;div&gt;Parameter&lt;/div&gt;&lt;div&gt;Grid&lt;br&gt;&lt;/div&gt;" style="shape=parallelogram;perimeter=parallelogramPerimeter;whiteSpace=wrap;html=1;dashed=0;strokeColor=#82b366;strokeWidth=1;fontSize=13;fillColor=#d5e8d4;" parent="1" vertex="1">
          <mxGeometry x="-7.5" y="725" width="115" height="60" as="geometry"/>
        </mxCell>
        <mxCell id="NHo2hMX4Ly52mJW6jiy2-1" style="edgeStyle=orthogonalEdgeStyle;rounded=0;orthogonalLoop=1;jettySize=auto;html=1;exitX=0.5;exitY=1;exitDx=0;exitDy=0;" parent="1" source="OFoXHy1mLqJZ7pKssnAS-1" target="OFoXHy1mLqJZ7pKssnAS-3" edge="1">
          <mxGeometry relative="1" as="geometry"/>
        </mxCell>
        <mxCell id="OFoXHy1mLqJZ7pKssnAS-1" value="&lt;font style=&quot;font-size: 14px;&quot;&gt;regressors.regressor&lt;/font&gt;" style="shape=process;whiteSpace=wrap;html=1;backgroundOutline=1;strokeColor=#6c8ebf;strokeWidth=1;fontSize=14;fillColor=#dae8fc;size=0.08333333333333329;" parent="1" vertex="1">
          <mxGeometry x="130" y="381" width="200" height="68" as="geometry"/>
        </mxCell>
        <mxCell id="NHo2hMX4Ly52mJW6jiy2-23" style="edgeStyle=orthogonalEdgeStyle;rounded=0;orthogonalLoop=1;jettySize=auto;html=1;exitX=0.5;exitY=1;exitDx=0;exitDy=0;entryX=0.5;entryY=0;entryDx=0;entryDy=0;labelBackgroundColor=none;fontSize=14;" parent="1" source="OFoXHy1mLqJZ7pKssnAS-3" target="NHo2hMX4Ly52mJW6jiy2-2" edge="1">
          <mxGeometry relative="1" as="geometry"/>
        </mxCell>
        <mxCell id="OFoXHy1mLqJZ7pKssnAS-3" value="sklearn Regressor" style="shape=process;whiteSpace=wrap;html=1;backgroundOutline=1;strokeColor=#6c8ebf;strokeWidth=1;fontSize=13;fillColor=#dae8fc;" parent="1" vertex="1">
          <mxGeometry x="170" y="485" width="120" height="60" as="geometry"/>
        </mxCell>
        <mxCell id="NHo2hMX4Ly52mJW6jiy2-3" value="IF" style="rhombus;whiteSpace=wrap;html=1;fillColor=#ffe6cc;strokeColor=#d79b00;" parent="1" vertex="1">
          <mxGeometry x="1140" y="622.5" width="80" height="80" as="geometry"/>
        </mxCell>
        <mxCell id="NHo2hMX4Ly52mJW6jiy2-6" value="True" style="edgeStyle=orthogonalEdgeStyle;rounded=0;orthogonalLoop=1;jettySize=auto;html=1;exitX=0;exitY=0.5;exitDx=0;exitDy=0;entryX=1;entryY=0.5;entryDx=0;entryDy=0;labelBackgroundColor=none;fontSize=13;" parent="1" source="NHo2hMX4Ly52mJW6jiy2-2" target="179U-aXH73Nz-XjWr356-3" edge="1">
          <mxGeometry x="0.0017" y="-10" relative="1" as="geometry">
            <mxPoint as="offset"/>
          </mxGeometry>
        </mxCell>
        <mxCell id="NHo2hMX4Ly52mJW6jiy2-24" value="False" style="edgeStyle=orthogonalEdgeStyle;rounded=0;orthogonalLoop=1;jettySize=auto;html=1;exitX=1;exitY=0.5;exitDx=0;exitDy=0;entryX=0.5;entryY=0;entryDx=0;entryDy=0;labelBackgroundColor=none;fontSize=13;" parent="1" source="NHo2hMX4Ly52mJW6jiy2-2" target="NHo2hMX4Ly52mJW6jiy2-19" edge="1">
          <mxGeometry x="-0.1007" y="10" relative="1" as="geometry">
            <mxPoint as="offset"/>
          </mxGeometry>
        </mxCell>
        <mxCell id="NHo2hMX4Ly52mJW6jiy2-2" value="IF Tune" style="rhombus;whiteSpace=wrap;html=1;fillColor=#ffe6cc;strokeColor=#d79b00;dashed=1;" parent="1" vertex="1">
          <mxGeometry x="190" y="575" width="80" height="80" as="geometry"/>
        </mxCell>
        <mxCell id="NHo2hMX4Ly52mJW6jiy2-21" style="edgeStyle=orthogonalEdgeStyle;rounded=0;orthogonalLoop=1;jettySize=auto;html=1;exitX=1;exitY=0.5;exitDx=0;exitDy=0;entryX=0;entryY=0.5;entryDx=0;entryDy=0;labelBackgroundColor=none;fontSize=14;" parent="1" source="NHo2hMX4Ly52mJW6jiy2-7" target="U0dlZtHoGtv4QynMNTn8-1" edge="1">
          <mxGeometry relative="1" as="geometry"/>
        </mxCell>
        <mxCell id="NHo2hMX4Ly52mJW6jiy2-7" value="&lt;font style=&quot;font-size: 14px;&quot;&gt;regressors.hyperTune()&lt;/font&gt;" style="shape=process;whiteSpace=wrap;html=1;backgroundOutline=1;strokeColor=#6c8ebf;strokeWidth=1;fontSize=14;fillColor=#dae8fc;size=0.07916666666666813;" parent="1" vertex="1">
          <mxGeometry x="170" y="721" width="200" height="68" as="geometry"/>
        </mxCell>
        <mxCell id="NHo2hMX4Ly52mJW6jiy2-13" style="edgeStyle=orthogonalEdgeStyle;rounded=0;orthogonalLoop=1;jettySize=auto;html=1;entryX=0.5;entryY=0;entryDx=0;entryDy=0;labelBackgroundColor=none;fontSize=14;" parent="1" target="179U-aXH73Nz-XjWr356-2" edge="1">
          <mxGeometry relative="1" as="geometry">
            <mxPoint x="942" y="550" as="sourcePoint"/>
          </mxGeometry>
        </mxCell>
        <mxCell id="NHo2hMX4Ly52mJW6jiy2-10" value="features.targets_features" style="shape=process;whiteSpace=wrap;html=1;backgroundOutline=1;strokeColor=#6c8ebf;strokeWidth=1;fontSize=13;fillColor=#dae8fc;size=0.0720720720720735;" parent="1" vertex="1">
          <mxGeometry x="860" y="490" width="200" height="60" as="geometry"/>
        </mxCell>
        <mxCell id="NHo2hMX4Ly52mJW6jiy2-14" value="&lt;div&gt;Output/&lt;/div&gt;&lt;div&gt;Result&lt;br&gt;&lt;/div&gt;" style="shape=parallelogram;perimeter=parallelogramPerimeter;whiteSpace=wrap;html=1;dashed=0;strokeColor=#82b366;strokeWidth=1;fontSize=13;fillColor=#d5e8d4;" parent="1" vertex="1">
          <mxGeometry x="1120" y="527.5" width="115" height="60" as="geometry"/>
        </mxCell>
        <mxCell id="NHo2hMX4Ly52mJW6jiy2-29" style="edgeStyle=orthogonalEdgeStyle;rounded=0;orthogonalLoop=1;jettySize=auto;html=1;exitX=0.5;exitY=1;exitDx=0;exitDy=0;entryX=0.5;entryY=0;entryDx=0;entryDy=0;labelBackgroundColor=none;fontSize=13;" parent="1" source="NHo2hMX4Ly52mJW6jiy2-19" target="NHo2hMX4Ly52mJW6jiy2-26" edge="1">
          <mxGeometry relative="1" as="geometry">
            <Array as="points">
              <mxPoint x="610" y="800"/>
              <mxPoint x="486" y="800"/>
            </Array>
          </mxGeometry>
        </mxCell>
        <mxCell id="NHo2hMX4Ly52mJW6jiy2-30" style="edgeStyle=orthogonalEdgeStyle;rounded=0;orthogonalLoop=1;jettySize=auto;html=1;exitX=0.5;exitY=1;exitDx=0;exitDy=0;entryX=0.577;entryY=-0.039;entryDx=0;entryDy=0;entryPerimeter=0;labelBackgroundColor=none;fontSize=13;" parent="1" source="NHo2hMX4Ly52mJW6jiy2-19" target="NHo2hMX4Ly52mJW6jiy2-28" edge="1">
          <mxGeometry relative="1" as="geometry">
            <Array as="points">
              <mxPoint x="610" y="781"/>
            </Array>
          </mxGeometry>
        </mxCell>
        <mxCell id="NHo2hMX4Ly52mJW6jiy2-31" style="edgeStyle=orthogonalEdgeStyle;rounded=0;orthogonalLoop=1;jettySize=auto;html=1;exitX=0.5;exitY=1;exitDx=0;exitDy=0;entryX=0.548;entryY=-0.025;entryDx=0;entryDy=0;entryPerimeter=0;labelBackgroundColor=none;fontSize=13;" parent="1" source="NHo2hMX4Ly52mJW6jiy2-19" target="NHo2hMX4Ly52mJW6jiy2-27" edge="1">
          <mxGeometry relative="1" as="geometry">
            <Array as="points">
              <mxPoint x="610" y="800"/>
              <mxPoint x="721" y="800"/>
            </Array>
          </mxGeometry>
        </mxCell>
        <mxCell id="NHo2hMX4Ly52mJW6jiy2-19" value="analysis.py" style="shape=process;whiteSpace=wrap;html=1;backgroundOutline=1;strokeColor=#6c8ebf;strokeWidth=1;fontSize=14;fillColor=#dae8fc;" parent="1" vertex="1">
          <mxGeometry x="550" y="661" width="120" height="60" as="geometry"/>
        </mxCell>
        <mxCell id="U0dlZtHoGtv4QynMNTn8-17" style="edgeStyle=orthogonalEdgeStyle;rounded=0;orthogonalLoop=1;jettySize=auto;html=1;exitX=0.5;exitY=1;exitDx=0;exitDy=0;entryX=1;entryY=0.5;entryDx=0;entryDy=0;fontSize=14;" edge="1" parent="1" source="NHo2hMX4Ly52mJW6jiy2-26" target="U0dlZtHoGtv4QynMNTn8-4">
          <mxGeometry relative="1" as="geometry"/>
        </mxCell>
        <mxCell id="NHo2hMX4Ly52mJW6jiy2-26" value="&lt;div&gt;PvA&lt;/div&gt;&lt;div&gt;Graph&lt;br&gt;&lt;/div&gt;" style="shape=parallelogram;perimeter=parallelogramPerimeter;whiteSpace=wrap;html=1;dashed=0;strokeColor=#82b366;strokeWidth=1;fontSize=13;fillColor=#d5e8d4;" parent="1" vertex="1">
          <mxGeometry x="428" y="840" width="115" height="60" as="geometry"/>
        </mxCell>
        <mxCell id="U0dlZtHoGtv4QynMNTn8-19" style="edgeStyle=orthogonalEdgeStyle;rounded=0;orthogonalLoop=1;jettySize=auto;html=1;exitX=0.5;exitY=1;exitDx=0;exitDy=0;entryX=1;entryY=0.5;entryDx=0;entryDy=0;fontSize=14;" edge="1" parent="1" source="NHo2hMX4Ly52mJW6jiy2-27" target="U0dlZtHoGtv4QynMNTn8-4">
          <mxGeometry relative="1" as="geometry"/>
        </mxCell>
        <mxCell id="NHo2hMX4Ly52mJW6jiy2-27" value="&lt;div&gt;Training &lt;br&gt;&lt;/div&gt;&lt;div&gt;Time&lt;br&gt;&lt;/div&gt;" style="shape=parallelogram;perimeter=parallelogramPerimeter;whiteSpace=wrap;html=1;dashed=0;strokeColor=#82b366;strokeWidth=1;fontSize=13;fillColor=#d5e8d4;" parent="1" vertex="1">
          <mxGeometry x="658" y="840" width="115" height="60" as="geometry"/>
        </mxCell>
        <mxCell id="U0dlZtHoGtv4QynMNTn8-18" style="edgeStyle=orthogonalEdgeStyle;rounded=0;orthogonalLoop=1;jettySize=auto;html=1;exitX=0.5;exitY=1;exitDx=0;exitDy=0;entryX=1;entryY=0.5;entryDx=0;entryDy=0;fontSize=14;" edge="1" parent="1" source="NHo2hMX4Ly52mJW6jiy2-28" target="U0dlZtHoGtv4QynMNTn8-4">
          <mxGeometry relative="1" as="geometry"/>
        </mxCell>
        <mxCell id="NHo2hMX4Ly52mJW6jiy2-28" value="Error Stats" style="shape=parallelogram;perimeter=parallelogramPerimeter;whiteSpace=wrap;html=1;dashed=0;strokeColor=#82b366;strokeWidth=1;fontSize=13;fillColor=#d5e8d4;" parent="1" vertex="1">
          <mxGeometry x="543" y="840" width="115" height="60" as="geometry"/>
        </mxCell>
        <mxCell id="U0dlZtHoGtv4QynMNTn8-2" style="edgeStyle=orthogonalEdgeStyle;rounded=0;orthogonalLoop=1;jettySize=auto;html=1;exitX=0.5;exitY=0;exitDx=0;exitDy=0;entryX=0;entryY=0.5;entryDx=0;entryDy=0;" edge="1" parent="1" source="U0dlZtHoGtv4QynMNTn8-1" target="NHo2hMX4Ly52mJW6jiy2-19">
          <mxGeometry relative="1" as="geometry"/>
        </mxCell>
        <mxCell id="U0dlZtHoGtv4QynMNTn8-20" style="edgeStyle=orthogonalEdgeStyle;rounded=0;orthogonalLoop=1;jettySize=auto;html=1;exitX=0.25;exitY=1;exitDx=0;exitDy=0;fontSize=14;" edge="1" parent="1" source="U0dlZtHoGtv4QynMNTn8-1" target="U0dlZtHoGtv4QynMNTn8-4">
          <mxGeometry relative="1" as="geometry">
            <Array as="points">
              <mxPoint x="429" y="850"/>
              <mxPoint x="366" y="850"/>
            </Array>
          </mxGeometry>
        </mxCell>
        <mxCell id="U0dlZtHoGtv4QynMNTn8-1" value="&lt;div&gt;Optimized&lt;/div&gt;&lt;div&gt;Parameters&lt;br&gt;&lt;/div&gt;" style="shape=parallelogram;perimeter=parallelogramPerimeter;whiteSpace=wrap;html=1;dashed=0;strokeColor=#82b366;strokeWidth=1;fontSize=13;fillColor=#d5e8d4;" vertex="1" parent="1">
          <mxGeometry x="400" y="725" width="115" height="60" as="geometry"/>
        </mxCell>
        <mxCell id="U0dlZtHoGtv4QynMNTn8-16" style="edgeStyle=orthogonalEdgeStyle;rounded=0;orthogonalLoop=1;jettySize=auto;html=1;exitX=0.5;exitY=1;exitDx=0;exitDy=0;entryX=-0.037;entryY=0.008;entryDx=0;entryDy=0;entryPerimeter=0;fontSize=14;" edge="1" parent="1" source="U0dlZtHoGtv4QynMNTn8-4" target="U0dlZtHoGtv4QynMNTn8-14">
          <mxGeometry relative="1" as="geometry"/>
        </mxCell>
        <mxCell id="U0dlZtHoGtv4QynMNTn8-4" value="models.store()" style="shape=process;whiteSpace=wrap;html=1;backgroundOutline=1;strokeColor=#6c8ebf;strokeWidth=1;fontSize=14;fillColor=#dae8fc;" vertex="1" parent="1">
          <mxGeometry x="301" y="950" width="130" height="60" as="geometry"/>
        </mxCell>
        <mxCell id="U0dlZtHoGtv4QynMNTn8-15" value="" style="group" vertex="1" connectable="0" parent="1">
          <mxGeometry x="300" y="1060" width="131" height="89.5" as="geometry"/>
        </mxCell>
        <mxCell id="U0dlZtHoGtv4QynMNTn8-12" value="" style="shape=image;html=1;verticalAlign=top;verticalLabelPosition=bottom;labelBackgroundColor=#ffffff;imageAspect=0;aspect=fixed;image=https://cdn3.iconfinder.com/data/icons/tango-icon-library/48/folder-128.png;fontSize=14;" vertex="1" parent="U0dlZtHoGtv4QynMNTn8-15">
          <mxGeometry width="70" height="70" as="geometry"/>
        </mxCell>
        <mxCell id="U0dlZtHoGtv4QynMNTn8-14" value="" style="shape=image;html=1;verticalAlign=top;verticalLabelPosition=bottom;labelBackgroundColor=#ffffff;imageAspect=0;aspect=fixed;image=https://cdn4.iconfinder.com/data/icons/small-n-flat/24/floppy-128.png;fontSize=14;" vertex="1" parent="U0dlZtHoGtv4QynMNTn8-15">
          <mxGeometry x="68" width="63" height="63" as="geometry"/>
        </mxCell>
        <mxCell id="U0dlZtHoGtv4QynMNTn8-13" value="" style="shape=image;html=1;verticalAlign=top;verticalLabelPosition=bottom;labelBackgroundColor=#ffffff;imageAspect=0;aspect=fixed;image=https://cdn3.iconfinder.com/data/icons/tango-icon-library/48/document-save-128.png;fontSize=14;" vertex="1" parent="U0dlZtHoGtv4QynMNTn8-15">
          <mxGeometry x="36" y="25.5" width="64" height="64" as="geometry"/>
        </mxCell>
      </root>
    </mxGraphModel>
  </diagram>
  <diagram id="cXJR05HgnWjJT9bLIXgt" name="Page-2">
    <mxGraphModel dx="2048" dy="1115" grid="1" gridSize="10" guides="1" tooltips="1" connect="1" arrows="1" fold="1" page="1" pageScale="1" pageWidth="850" pageHeight="1100" math="0" shadow="0">
      <root>
        <mxCell id="cPKMmL-ZN1O6RVUK0DsR-0"/>
        <mxCell id="cPKMmL-ZN1O6RVUK0DsR-1" parent="cPKMmL-ZN1O6RVUK0DsR-0"/>
        <mxCell id="jF4IYLlPB170vGXqcWr4-0" value="Vertical Flow Layout" style="swimlane;html=1;startSize=20;horizontal=1;childLayout=flowLayout;flowOrientation=north;resizable=0;interRankCellSpacing=50;containerType=tree;" vertex="1" parent="cPKMmL-ZN1O6RVUK0DsR-1">
          <mxGeometry x="230" y="260" width="270" height="280" as="geometry"/>
        </mxCell>
        <mxCell id="jF4IYLlPB170vGXqcWr4-1" value="Start" style="whiteSpace=wrap;html=1;" vertex="1" parent="jF4IYLlPB170vGXqcWr4-0">
          <mxGeometry x="85" y="40" width="100" height="40" as="geometry"/>
        </mxCell>
        <mxCell id="jF4IYLlPB170vGXqcWr4-2" value="Task" style="whiteSpace=wrap;html=1;" vertex="1" parent="jF4IYLlPB170vGXqcWr4-0">
          <mxGeometry x="20" y="130" width="100" height="40" as="geometry"/>
        </mxCell>
        <mxCell id="jF4IYLlPB170vGXqcWr4-3" value="" style="html=1;curved=1;noEdgeStyle=1;orthogonal=1;" edge="1" parent="jF4IYLlPB170vGXqcWr4-0" source="jF4IYLlPB170vGXqcWr4-1" target="jF4IYLlPB170vGXqcWr4-2">
          <mxGeometry relative="1" as="geometry">
            <Array as="points">
              <mxPoint x="112.5" y="92"/>
              <mxPoint x="70" y="118"/>
            </Array>
          </mxGeometry>
        </mxCell>
        <mxCell id="jF4IYLlPB170vGXqcWr4-4" value="Task" style="whiteSpace=wrap;html=1;" vertex="1" parent="jF4IYLlPB170vGXqcWr4-0">
          <mxGeometry x="150" y="130" width="100" height="40" as="geometry"/>
        </mxCell>
        <mxCell id="jF4IYLlPB170vGXqcWr4-5" value="" style="html=1;curved=1;noEdgeStyle=1;orthogonal=1;" edge="1" parent="jF4IYLlPB170vGXqcWr4-0" source="jF4IYLlPB170vGXqcWr4-1" target="jF4IYLlPB170vGXqcWr4-4">
          <mxGeometry relative="1" as="geometry">
            <Array as="points">
              <mxPoint x="157.5" y="92"/>
              <mxPoint x="200" y="118"/>
            </Array>
          </mxGeometry>
        </mxCell>
        <mxCell id="jF4IYLlPB170vGXqcWr4-6" value="End" style="whiteSpace=wrap;html=1;" vertex="1" parent="jF4IYLlPB170vGXqcWr4-0">
          <mxGeometry x="85" y="220" width="100" height="40" as="geometry"/>
        </mxCell>
        <mxCell id="jF4IYLlPB170vGXqcWr4-7" value="" style="html=1;curved=1;noEdgeStyle=1;orthogonal=1;" edge="1" parent="jF4IYLlPB170vGXqcWr4-0" source="jF4IYLlPB170vGXqcWr4-2" target="jF4IYLlPB170vGXqcWr4-6">
          <mxGeometry relative="1" as="geometry">
            <Array as="points">
              <mxPoint x="70" y="182"/>
              <mxPoint x="112.5" y="208"/>
            </Array>
          </mxGeometry>
        </mxCell>
        <mxCell id="jF4IYLlPB170vGXqcWr4-8" value="" style="html=1;curved=1;noEdgeStyle=1;orthogonal=1;" edge="1" parent="jF4IYLlPB170vGXqcWr4-0" source="jF4IYLlPB170vGXqcWr4-4" target="jF4IYLlPB170vGXqcWr4-6">
          <mxGeometry relative="1" as="geometry">
            <Array as="points">
              <mxPoint x="200" y="182"/>
              <mxPoint x="157.5" y="208"/>
            </Array>
          </mxGeometry>
        </mxCell>
      </root>
    </mxGraphModel>
  </diagram>
</mxfile>
